<?xml version="1.0" encoding="UTF-8"?>
<svg xmlns="http://www.w3.org/2000/svg" width="320mm" height="250mm" viewBox="0 0 907.1 708.7">
  <g id="a" data-name="Hintergrund">
    <rect width="907.1" height="708.7" style="fill: #c6c6c6; stroke-width: 0px;"/>
  </g>
  <g id="b" data-name="Druckbereiche">
    <rect width="85" height="708.7" style="fill: #1d1d1b; opacity: .5; stroke-width: 0px;"/>
    <rect x="822" width="85" height="708.7" style="fill: #1d1d1b; opacity: .5; stroke-width: 0px;"/>
  </g>
  <g id="c" data-name="Infotext">
    <g>
      <path d="M27.5,663.2c0-.7.2-1.3.5-2,.3-.6.8-1.1,1.4-1.5.6-.3,1.3-.5,2.1-.5,1.2,0,2.1.4,2.9,1.1.8.8,1.1,1.7,1.1,2.9s-.4,2.2-1.1,2.9c-.8.8-1.7,1.2-2.9,1.2s-1.4-.2-2-.5c-.6-.3-1.1-.8-1.5-1.4-.3-.6-.5-1.4-.5-2.3ZM29.6,663.3c0,.8.2,1.4.5,1.8.4.4.8.6,1.4.6s1-.2,1.4-.6c.4-.4.5-1,.5-1.8s-.2-1.3-.5-1.8c-.4-.4-.8-.6-1.4-.6s-1,.2-1.4.6c-.4.4-.5,1-.5,1.8Z" style="fill: #1d1d1b; stroke-width: 0px;"/>
      <path d="M44.2,667.2h-2.1v-4c0-.8,0-1.4-.1-1.6,0-.2-.2-.4-.4-.6-.2-.1-.4-.2-.7-.2s-.7,0-1,.3-.5.5-.6.8c-.1.3-.2.9-.2,1.8v3.5h-2.1v-7.8h1.9v1.1c.7-.9,1.5-1.3,2.6-1.3s.9,0,1.2.2c.4.2.7.4.9.6.2.3.3.5.4.9,0,.3.1.8.1,1.4v4.8Z" style="fill: #1d1d1b; stroke-width: 0px;"/>
      <path d="M46.3,667.2v-10.7h2.1v10.7h-2.1Z" style="fill: #1d1d1b; stroke-width: 0px;"/>
      <path d="M49.5,659.4h2.2l1.9,5.5,1.8-5.5h2.1l-2.7,7.5-.5,1.4c-.2.5-.4.8-.5,1-.2.2-.4.4-.6.6-.2.1-.5.3-.8.3-.3,0-.7.1-1.1.1s-.8,0-1.2-.1l-.2-1.6c.3,0,.6,0,.9,0,.5,0,.8-.1,1.1-.4.2-.3.4-.6.5-1.1l-3-7.8Z" style="fill: #1d1d1b; stroke-width: 0px;"/>
      <path d="M33.6,694.2v-14.9h-5.3v-3h14.2v3h-5.3v14.9h-3.6Z" style="fill: #1d1d1b; stroke-width: 0px;"/>
      <path d="M49.9,676.2c1.7,0,3.1.6,4.1,1.9,1.2,1.5,1.7,3.9,1.7,7.3s-.6,5.8-1.8,7.3c-1,1.2-2.3,1.8-4.1,1.8s-3.1-.7-4.2-2c-1.1-1.3-1.6-3.7-1.6-7.2s.6-5.8,1.8-7.3c1-1.2,2.3-1.8,4.1-1.8ZM49.9,679.1c-.4,0-.8.1-1.1.4-.3.3-.6.7-.8,1.4-.2.9-.4,2.4-.4,4.5s.1,3.5.3,4.3.5,1.3.8,1.6c.3.3.7.4,1.1.4s.8-.1,1.1-.4c.3-.3.6-.7.8-1.4.2-.9.4-2.4.4-4.5s-.1-3.5-.3-4.3c-.2-.8-.5-1.3-.8-1.6s-.7-.4-1.1-.4Z" style="fill: #1d1d1b; stroke-width: 0px;"/>
    </g>
    <g>
      <path d="M849.6,663.5c0-.7.2-1.3.5-2,.3-.6.8-1.1,1.4-1.5.6-.3,1.3-.5,2.1-.5,1.2,0,2.1.4,2.9,1.1.8.8,1.1,1.7,1.1,2.9s-.4,2.2-1.1,2.9c-.8.8-1.7,1.2-2.9,1.2s-1.4-.2-2-.5c-.6-.3-1.1-.8-1.5-1.4-.3-.6-.5-1.4-.5-2.3ZM851.7,663.6c0,.8.2,1.4.5,1.8.4.4.8.6,1.4.6s1-.2,1.4-.6c.4-.4.5-1,.5-1.8s-.2-1.3-.5-1.8c-.4-.4-.8-.6-1.4-.6s-1,.2-1.4.6c-.4.4-.5,1-.5,1.8Z" style="fill: #1d1d1b; stroke-width: 0px;"/>
      <path d="M866.3,667.5h-2.1v-4c0-.8,0-1.4-.1-1.6,0-.2-.2-.4-.4-.6-.2-.1-.4-.2-.7-.2s-.7,0-1,.3-.5.5-.6.8c-.1.3-.2.9-.2,1.8v3.5h-2.1v-7.8h1.9v1.1c.7-.9,1.5-1.3,2.6-1.3s.9,0,1.2.2c.4.2.7.4.9.6.2.3.3.5.4.9,0,.3.1.8.1,1.4v4.8Z" style="fill: #1d1d1b; stroke-width: 0px;"/>
      <path d="M868.4,667.5v-10.7h2.1v10.7h-2.1Z" style="fill: #1d1d1b; stroke-width: 0px;"/>
      <path d="M871.6,659.7h2.2l1.9,5.5,1.8-5.5h2.1l-2.7,7.5-.5,1.4c-.2.5-.4.8-.5,1-.2.2-.4.4-.6.6-.2.1-.5.3-.8.3-.3,0-.7.1-1.1.1s-.8,0-1.2-.1l-.2-1.6c.3,0,.6,0,.9,0,.5,0,.8-.1,1.1-.4.2-.3.4-.6.5-1.1l-3-7.8Z" style="fill: #1d1d1b; stroke-width: 0px;"/>
      <path d="M855.6,694.5v-14.9h-5.3v-3h14.2v3h-5.3v14.9h-3.6Z" style="fill: #1d1d1b; stroke-width: 0px;"/>
      <path d="M874.9,694.5h-3.4v-12.9c-1.3,1.2-2.7,2-4.4,2.6v-3.1c.9-.3,1.9-.8,2.9-1.7,1.1-.8,1.8-1.8,2.2-2.9h2.8v18Z" style="fill: #1d1d1b; stroke-width: 0px;"/>
    </g>
  </g>
  <g id="d" data-name="Rahmen">
    <path d="M905.1,2v704.7H2V2h903.1M907.1,0H0v708.7h907.1V0h0Z" style="fill: #1d1d1b; stroke-width: 0px;"/>
  </g>
  <g id="e" data-name="50mm Linien">
    <line y1="141.7" x2="907.1" y2="141.7" style="fill: none; stroke: #1d1d1b; stroke-miterlimit: 10;"/>
    <line y1="283.5" x2="907.1" y2="283.5" style="fill: none; stroke: #1d1d1b; stroke-miterlimit: 10;"/>
    <line y1="425.2" x2="907.1" y2="425.2" style="fill: none; stroke: #1d1d1b; stroke-miterlimit: 10;"/>
    <line y1="566.9" x2="907.1" y2="566.9" style="fill: none; stroke: #1d1d1b; stroke-miterlimit: 10;"/>
    <line x1="141.7" y1="708.7" x2="141.7" style="fill: none; stroke: #1d1d1b; stroke-miterlimit: 10;"/>
    <line x1="283.5" y1="708.7" x2="283.5" style="fill: none; stroke: #1d1d1b; stroke-miterlimit: 10;"/>
    <line x1="425.2" y1="708.7" x2="425.2" style="fill: none; stroke: #1d1d1b; stroke-miterlimit: 10;"/>
    <line x1="566.9" y1="708.7" x2="566.9" style="fill: none; stroke: #1d1d1b; stroke-miterlimit: 10;"/>
    <line x1="708.7" y1="708.7" x2="708.7" style="fill: none; stroke: #1d1d1b; stroke-miterlimit: 10;"/>
    <line x1="850.4" y1="708.7" x2="850.4" style="fill: none; stroke: #1d1d1b; stroke-miterlimit: 10;"/>
  </g>
  <g id="f" data-name="10mm Linien">
    <line x1="28.3" y1="708.7" x2="28.3" style="fill: none; stroke: #1d1d1b; stroke-miterlimit: 10; stroke-width: .4px;"/>
    <line x1="56.7" y1="708.7" x2="56.7" style="fill: none; stroke: #1d1d1b; stroke-miterlimit: 10; stroke-width: .4px;"/>
    <line x1="85" y1="708.7" x2="85" style="fill: none; stroke: #1d1d1b; stroke-miterlimit: 10; stroke-width: .4px;"/>
    <line x1="113.4" y1="708.7" x2="113.4" style="fill: none; stroke: #1d1d1b; stroke-miterlimit: 10; stroke-width: .4px;"/>
    <line x1="170.1" y1="708.7" x2="170.1" style="fill: none; stroke: #1d1d1b; stroke-miterlimit: 10; stroke-width: .4px;"/>
    <line x1="198.4" y1="708.7" x2="198.4" style="fill: none; stroke: #1d1d1b; stroke-miterlimit: 10; stroke-width: .4px;"/>
    <line x1="226.8" y1="708.7" x2="226.8" style="fill: none; stroke: #1d1d1b; stroke-miterlimit: 10; stroke-width: .4px;"/>
    <line x1="255.1" y1="708.7" x2="255.1" style="fill: none; stroke: #1d1d1b; stroke-miterlimit: 10; stroke-width: .4px;"/>
    <line x1="311.8" y1="708.7" x2="311.8" style="fill: none; stroke: #1d1d1b; stroke-miterlimit: 10; stroke-width: .4px;"/>
    <line x1="340.2" y1="708.7" x2="340.2" style="fill: none; stroke: #1d1d1b; stroke-miterlimit: 10; stroke-width: .4px;"/>
    <line x1="368.5" y1="708.7" x2="368.5" style="fill: none; stroke: #1d1d1b; stroke-miterlimit: 10; stroke-width: .4px;"/>
    <line x1="396.9" y1="708.7" x2="396.9" style="fill: none; stroke: #1d1d1b; stroke-miterlimit: 10; stroke-width: .4px;"/>
    <line x1="453.5" y1="708.7" x2="453.5" style="fill: none; stroke: #1d1d1b; stroke-miterlimit: 10; stroke-width: .4px;"/>
    <line x1="481.9" y1="708.7" x2="481.9" style="fill: none; stroke: #1d1d1b; stroke-miterlimit: 10; stroke-width: .4px;"/>
    <line x1="510.2" y1="708.7" x2="510.2" style="fill: none; stroke: #1d1d1b; stroke-miterlimit: 10; stroke-width: .4px;"/>
    <line x1="538.6" y1="708.7" x2="538.6" style="fill: none; stroke: #1d1d1b; stroke-miterlimit: 10; stroke-width: .4px;"/>
    <line x1="595.3" y1="708.7" x2="595.3" style="fill: none; stroke: #1d1d1b; stroke-miterlimit: 10; stroke-width: .4px;"/>
    <line x1="623.6" y1="708.7" x2="623.6" style="fill: none; stroke: #1d1d1b; stroke-miterlimit: 10; stroke-width: .4px;"/>
    <line x1="652" y1="708.7" x2="652" style="fill: none; stroke: #1d1d1b; stroke-miterlimit: 10; stroke-width: .4px;"/>
    <line x1="680.3" y1="708.7" x2="680.3" style="fill: none; stroke: #1d1d1b; stroke-miterlimit: 10; stroke-width: .4px;"/>
    <line x1="737" y1="708.7" x2="737" style="fill: none; stroke: #1d1d1b; stroke-miterlimit: 10; stroke-width: .4px;"/>
    <line x1="765.4" y1="708.7" x2="765.4" style="fill: none; stroke: #1d1d1b; stroke-miterlimit: 10; stroke-width: .4px;"/>
    <line x1="793.7" y1="708.7" x2="793.7" style="fill: none; stroke: #1d1d1b; stroke-miterlimit: 10; stroke-width: .4px;"/>
    <line x1="822" y1="708.7" x2="822" style="fill: none; stroke: #1d1d1b; stroke-miterlimit: 10; stroke-width: .4px;"/>
    <line x1="878.7" y1="708.7" x2="878.7" style="fill: none; stroke: #1d1d1b; stroke-miterlimit: 10; stroke-width: .4px;"/>
    <line y1="28.3" x2="907.1" y2="28.3" style="fill: none; stroke: #1d1d1b; stroke-miterlimit: 10; stroke-width: .4px;"/>
    <line y1="56.7" x2="907.1" y2="56.7" style="fill: none; stroke: #1d1d1b; stroke-miterlimit: 10; stroke-width: .4px;"/>
    <line y1="85" x2="907.1" y2="85" style="fill: none; stroke: #1d1d1b; stroke-miterlimit: 10; stroke-width: .4px;"/>
    <line y1="113.4" x2="907.1" y2="113.4" style="fill: none; stroke: #1d1d1b; stroke-miterlimit: 10; stroke-width: .4px;"/>
    <line y1="170.1" x2="907.1" y2="170.1" style="fill: none; stroke: #1d1d1b; stroke-miterlimit: 10; stroke-width: .4px;"/>
    <line y1="198.4" x2="907.1" y2="198.4" style="fill: none; stroke: #1d1d1b; stroke-miterlimit: 10; stroke-width: .4px;"/>
    <line y1="226.8" x2="907.1" y2="226.8" style="fill: none; stroke: #1d1d1b; stroke-miterlimit: 10; stroke-width: .4px;"/>
    <line y1="255.1" x2="907.1" y2="255.1" style="fill: none; stroke: #1d1d1b; stroke-miterlimit: 10; stroke-width: .4px;"/>
    <line y1="311.8" x2="907.1" y2="311.8" style="fill: none; stroke: #1d1d1b; stroke-miterlimit: 10; stroke-width: .4px;"/>
    <line y1="340.2" x2="907.1" y2="340.2" style="fill: none; stroke: #1d1d1b; stroke-miterlimit: 10; stroke-width: .4px;"/>
    <line y1="368.5" x2="907.1" y2="368.5" style="fill: none; stroke: #1d1d1b; stroke-miterlimit: 10; stroke-width: .4px;"/>
    <line y1="396.9" x2="907.1" y2="396.9" style="fill: none; stroke: #1d1d1b; stroke-miterlimit: 10; stroke-width: .4px;"/>
    <line y1="453.5" x2="907.1" y2="453.5" style="fill: none; stroke: #1d1d1b; stroke-miterlimit: 10; stroke-width: .4px;"/>
    <line y1="481.9" x2="907.1" y2="481.9" style="fill: none; stroke: #1d1d1b; stroke-miterlimit: 10; stroke-width: .4px;"/>
    <line y1="510.2" x2="907.1" y2="510.2" style="fill: none; stroke: #1d1d1b; stroke-miterlimit: 10; stroke-width: .4px;"/>
    <line y1="538.6" x2="907.1" y2="538.6" style="fill: none; stroke: #1d1d1b; stroke-miterlimit: 10; stroke-width: .4px;"/>
    <line y1="595.3" x2="907.1" y2="595.3" style="fill: none; stroke: #1d1d1b; stroke-miterlimit: 10; stroke-width: .4px;"/>
    <line y1="623.6" x2="907.1" y2="623.6" style="fill: none; stroke: #1d1d1b; stroke-miterlimit: 10; stroke-width: .4px;"/>
    <line y1="652" x2="907.1" y2="652" style="fill: none; stroke: #1d1d1b; stroke-miterlimit: 10; stroke-width: .4px;"/>
    <line y1="680.3" x2="907.1" y2="680.3" style="fill: none; stroke: #1d1d1b; stroke-miterlimit: 10; stroke-width: .4px;"/>
  </g>
  <g id="g" data-name="Logo">
    <g style="opacity: .6;">
      <path d="M776.4,638.3h-12.8v42.4c0,0,12.7,0,12.7,0,12.8,0,19-8.9,19-21.2,0-12.4-6.1-21.2-18.9-21.2Z" style="fill: none; stroke-width: 0px;"/>
      <path d="M776.5,625.7s-124.4-.3-124.5-.3h3.3c11.7,0,19.7,5,22.7,12.7,0,0,0,.2,0,.3h52.6c1.9,1.4,3.1,3.6,3.1,6.4,0,5.7-4.8,8.6-10.7,8.6h-7.1v11.6h7.1c6.5,0,11.9,3.1,11.9,8.9s-4.8,8.8-10.7,8.8-10.3-2.4-13.8-6.5l-7,8.5c4.6,6.2,12.1,9.8,21.2,9.8s22.4-6.4,22.4-19.7-4-12.7-10.4-15.5c5.7-3,9.1-8.2,9.1-15.3s-.3-3.8-.7-5.5h6.2v54.6c0,0,25,0,25,0,19,0,31.6-13.1,31.6-33.4.1-20.6-12.4-34-31.4-34.1ZM776.2,680.8h-12.8v-42.4h12.9c12.8,0,19,8.8,19,21.2s-6.3,21.2-19.1,21.2Z" style="fill: #037678; stroke-width: 0px;"/>
      <path d="M659.2,666.2c12.7-1.2,20.3-8.7,20.3-19.6s-.5-5.8-1.4-8.2c0,0,0-.2,0-.3-3-7.7-11-12.7-22.7-12.7h-69.4c-20.1.2-34.3,16.3-34.3,36.1s14.3,33,34.6,33,22-4,27.8-12.6l-10.7-7.8c-4,5.8-9.9,9-17.2,9-11.6,0-21.5-8.2-21.6-21.5,0-12.7,9-23.5,21.3-23.5,0,0,0,0,0,0h0l69.1.2c7,0,10.9,2.8,10.9,8.4s-3.8,8.3-11,8.2h-27.8c0,0,0,38.1,0,38.1h13.3v-26.6h4l19.3,26.6h16l-20.4-26.7Z" style="fill: #fff; stroke: #1e1e1c; stroke-miterlimit: 10;"/>
    </g>
  </g>
</svg>