<?xml version="1.0" encoding="UTF-8"?>
<svg xmlns="http://www.w3.org/2000/svg" width="190mm" height="400mm" viewBox="0 0 538.6 1133.9">
  <g id="a" data-name="Hintergrund">
    <rect width="538.6" height="1133.9" style="fill: #c6c6c6; stroke-width: 0px;"/>
  </g>
  <g id="c" data-name="Infotext">
    <g style="opacity: .8;">
      <path d="M145.3,45.7h-5.6v-3.4c-.9,1.3-2,2.3-3.3,2.9s-2.5,1-3.8,1c-2.6,0-4.9-1.1-6.7-3.2-1.9-2.1-2.8-5.1-2.8-8.8s.9-6.8,2.7-8.8c1.8-2,4.1-3,6.9-3s4.8,1.1,6.6,3.2v-11.3h6v31.5ZM129.1,33.8c0,2.4.3,4.2,1,5.3,1,1.6,2.3,2.4,4.1,2.4s2.6-.6,3.5-1.8c1-1.2,1.5-2.9,1.5-5.3s-.5-4.5-1.4-5.7c-.9-1.2-2.2-1.7-3.6-1.7s-2.6.6-3.6,1.7-1.5,2.8-1.5,5.1Z" style="fill: #1d1d1b; stroke-width: 0px;"/>
      <path d="M166.2,45.7v-3.4c-.8,1.2-1.9,2.2-3.3,2.9s-2.8,1.1-4.3,1.1-2.9-.3-4.1-1c-1.2-.7-2.1-1.6-2.6-2.8-.5-1.2-.8-2.9-.8-5v-14.4h6v10.5c0,3.2.1,5.2.3,5.9.2.7.6,1.3,1.2,1.7.6.4,1.3.6,2.2.6s2-.3,2.8-.8c.8-.6,1.4-1.3,1.7-2.1s.5-2.9.5-6.2v-9.6h6v22.8h-5.6Z" style="fill: #1d1d1b; stroke-width: 0px;"/>
      <path d="M177.9,22.9h5.6v3.4c.7-1.1,1.7-2.1,3-2.8,1.2-.7,2.6-1.1,4.1-1.1,2.6,0,4.9,1,6.7,3.1,1.8,2.1,2.8,5,2.8,8.7s-.9,6.8-2.8,8.9c-1.9,2.1-4.1,3.2-6.8,3.2s-2.4-.3-3.4-.8c-1-.5-2.1-1.4-3.2-2.6v11.5h-6v-31.5ZM183.9,33.9c0,2.6.5,4.5,1.5,5.7,1,1.2,2.3,1.8,3.7,1.8s2.6-.6,3.5-1.7c.9-1.1,1.4-3,1.4-5.5s-.5-4.2-1.4-5.3c-1-1.2-2.1-1.7-3.6-1.7s-2.7.6-3.7,1.7c-1,1.1-1.5,2.8-1.5,5.1Z" style="fill: #1d1d1b; stroke-width: 0px;"/>
      <path d="M205,45.7V14.2h6v31.5h-6Z" style="fill: #1d1d1b; stroke-width: 0px;"/>
      <path d="M217.2,19.8v-5.6h6v5.6h-6ZM217.2,45.7v-22.8h6v22.8h-6Z" style="fill: #1d1d1b; stroke-width: 0px;"/>
      <path d="M249.3,29.6l-6,1.1c-.2-1.2-.7-2.1-1.4-2.7s-1.6-.9-2.8-.9-2.7.5-3.6,1.6c-.9,1-1.3,2.8-1.3,5.2s.5,4.6,1.4,5.7c.9,1.1,2.1,1.7,3.7,1.7s2.1-.3,2.8-1c.7-.7,1.2-1.8,1.5-3.4l5.9,1c-.6,2.7-1.8,4.8-3.5,6.2-1.7,1.4-4.1,2.1-7,2.1s-6-1.1-8-3.2c-2-2.1-3-5-3-8.7s1-6.7,3-8.8c2-2.1,4.7-3.1,8.1-3.1s5,.6,6.6,1.8c1.6,1.2,2.8,3,3.5,5.5Z" style="fill: #1d1d1b; stroke-width: 0px;"/>
      <path d="M258.4,29.8l-5.5-1c.6-2.2,1.7-3.8,3.2-4.9,1.5-1.1,3.7-1.6,6.7-1.6s4.7.3,6,1c1.3.6,2.2,1.4,2.8,2.4.5,1,.8,2.8.8,5.4v7c0,2,0,3.5.2,4.4.2,1,.6,2,1.1,3.1h-6c-.2-.4-.4-1-.6-1.8-.1-.4-.2-.6-.2-.7-1,1-2.1,1.8-3.3,2.3-1.2.5-2.4.8-3.8.8-2.3,0-4.2-.6-5.6-1.9-1.4-1.3-2-2.9-2-4.8s.3-2.4.9-3.4c.6-1,1.5-1.8,2.6-2.3,1.1-.5,2.7-1,4.8-1.4,2.8-.5,4.8-1,5.9-1.5v-.6c0-1.2-.3-2-.9-2.5-.6-.5-1.7-.7-3.2-.7s-1.9.2-2.5.6c-.6.4-1.1,1.2-1.5,2.2ZM266.5,34.7c-.8.3-2,.6-3.7.9-1.7.4-2.8.7-3.3,1.1-.8.6-1.2,1.3-1.2,2.1s.3,1.6.9,2.2c.6.6,1.4.9,2.4.9s2.1-.4,3.1-1.1c.7-.5,1.2-1.2,1.4-2,.2-.5.2-1.5.2-2.9v-1.2Z" style="fill: #1d1d1b; stroke-width: 0px;"/>
      <path d="M288.8,22.9v4.8h-4.1v9.2c0,1.9,0,2.9.1,3.3,0,.3.3.6.5.8.3.2.6.3,1,.3s1.4-.2,2.4-.6l.5,4.7c-1.4.6-3,.9-4.8.9s-2.1-.2-2.9-.5c-.9-.4-1.5-.8-1.9-1.4s-.7-1.4-.8-2.4c-.1-.7-.2-2.1-.2-4.3v-9.9h-2.8v-4.8h2.8v-4.5l6.1-3.5v8.1h4.1Z" style="fill: #1d1d1b; stroke-width: 0px;"/>
      <path d="M306.2,38.4l6,1c-.8,2.2-2,3.9-3.7,5-1.7,1.2-3.8,1.7-6.3,1.7-4,0-6.9-1.3-8.8-3.9-1.5-2.1-2.3-4.7-2.3-7.9s1-6.7,3-8.9c2-2.1,4.5-3.2,7.5-3.2s6.1,1.1,8,3.4c2,2.2,2.9,5.7,2.8,10.3h-15.1c0,1.8.5,3.2,1.5,4.2.9,1,2.1,1.5,3.5,1.5s1.7-.3,2.4-.8,1.1-1.3,1.5-2.5ZM306.6,32.3c0-1.7-.5-3.1-1.4-4-.9-.9-1.9-1.4-3.1-1.4s-2.4.5-3.3,1.4c-.9,1-1.3,2.3-1.3,3.9h9Z" style="fill: #1d1d1b; stroke-width: 0px;"/>
      <path d="M334.2,29.8l-5.5-1c.6-2.2,1.7-3.8,3.2-4.9,1.5-1.1,3.7-1.6,6.7-1.6s4.7.3,6,1c1.3.6,2.2,1.4,2.8,2.4.5,1,.8,2.8.8,5.4v7c0,2,0,3.5.2,4.4.2,1,.6,2,1.1,3.1h-6c-.2-.4-.4-1-.6-1.8-.1-.4-.2-.6-.2-.7-1,1-2.1,1.8-3.3,2.3-1.2.5-2.4.8-3.8.8-2.3,0-4.2-.6-5.6-1.9-1.4-1.3-2-2.9-2-4.8s.3-2.4.9-3.4c.6-1,1.5-1.8,2.6-2.3,1.1-.5,2.7-1,4.8-1.4,2.8-.5,4.8-1,5.9-1.5v-.6c0-1.2-.3-2-.9-2.5-.6-.5-1.7-.7-3.2-.7s-1.9.2-2.5.6c-.6.4-1.1,1.2-1.5,2.2ZM342.3,34.7c-.8.3-2,.6-3.7.9-1.7.4-2.8.7-3.3,1.1-.8.6-1.2,1.3-1.2,2.1s.3,1.6.9,2.2c.6.6,1.4.9,2.4.9s2.1-.4,3.1-1.1c.7-.5,1.2-1.2,1.4-2,.2-.5.2-1.5.2-2.9v-1.2Z" style="fill: #1d1d1b; stroke-width: 0px;"/>
      <path d="M360,45.7h-6v-22.8h5.6v3.2c1-1.5,1.8-2.5,2.6-3,.8-.5,1.6-.7,2.6-.7s2.7.4,4,1.1l-1.9,5.3c-1-.7-2-1-2.8-1s-1.6.2-2.1.7c-.6.5-1,1.3-1.4,2.5-.3,1.2-.5,3.8-.5,7.6v7Z" style="fill: #1d1d1b; stroke-width: 0px;"/>
      <path d="M384.5,38.4l6,1c-.8,2.2-2,3.9-3.7,5-1.7,1.2-3.8,1.7-6.3,1.7-4,0-6.9-1.3-8.8-3.9-1.5-2.1-2.3-4.7-2.3-7.9s1-6.7,3-8.9c2-2.1,4.5-3.2,7.5-3.2s6.1,1.1,8,3.4c2,2.2,2.9,5.7,2.8,10.3h-15.1c0,1.8.5,3.2,1.5,4.2.9,1,2.1,1.5,3.5,1.5s1.7-.3,2.4-.8,1.1-1.3,1.5-2.5ZM384.9,32.3c0-1.7-.5-3.1-1.4-4-.9-.9-1.9-1.4-3.1-1.4s-2.4.5-3.3,1.4c-.9,1-1.3,2.3-1.3,3.9h9Z" style="fill: #1d1d1b; stroke-width: 0px;"/>
      <path d="M400.3,29.8l-5.5-1c.6-2.2,1.7-3.8,3.2-4.9,1.5-1.1,3.7-1.6,6.7-1.6s4.7.3,6,1c1.3.6,2.2,1.4,2.8,2.4.5,1,.8,2.8.8,5.4v7c0,2,0,3.5.2,4.4.2,1,.6,2,1.1,3.1h-6c-.2-.4-.4-1-.6-1.8-.1-.4-.2-.6-.2-.7-1,1-2.1,1.8-3.3,2.3-1.2.5-2.4.8-3.8.8-2.3,0-4.2-.6-5.6-1.9-1.4-1.3-2-2.9-2-4.8s.3-2.4.9-3.4c.6-1,1.5-1.8,2.6-2.3,1.1-.5,2.7-1,4.8-1.4,2.8-.5,4.8-1,5.9-1.5v-.6c0-1.2-.3-2-.9-2.5-.6-.5-1.7-.7-3.2-.7s-1.9.2-2.5.6c-.6.4-1.1,1.2-1.5,2.2ZM408.4,34.7c-.8.3-2,.6-3.7.9-1.7.4-2.8.7-3.3,1.1-.8.6-1.2,1.3-1.2,2.1s.3,1.6.9,2.2c.6.6,1.4.9,2.4.9s2.1-.4,3.1-1.1c.7-.5,1.2-1.2,1.4-2,.2-.5.2-1.5.2-2.9v-1.2Z" style="fill: #1d1d1b; stroke-width: 0px;"/>
    </g>
  </g>
  <g id="d" data-name="Rahmen">
    <path d="M536.6,2v1129.9H2V2h534.6M538.6,0H0v1133.9h538.6V0h0Z" style="fill: #1d1d1b; stroke-width: 0px;"/>
  </g>
  <g id="e" data-name="50mm Linien">
    <line y1="141.7" x2="538.6" y2="141.7" style="fill: none; stroke: #1d1d1b; stroke-miterlimit: 10;"/>
    <line y1="283.5" x2="538.6" y2="283.5" style="fill: none; stroke: #1d1d1b; stroke-miterlimit: 10;"/>
    <line y1="425.2" x2="538.6" y2="425.2" style="fill: none; stroke: #1d1d1b; stroke-miterlimit: 10;"/>
    <line y1="566.9" x2="538.6" y2="566.9" style="fill: none; stroke: #1d1d1b; stroke-miterlimit: 10;"/>
    <line x1="141.7" y1="1133.9" x2="141.7" style="fill: none; stroke: #1d1d1b; stroke-miterlimit: 10;"/>
    <line x1="283.5" y1="1133.9" x2="283.5" style="fill: none; stroke: #1d1d1b; stroke-miterlimit: 10;"/>
    <line x1="425.2" y1="1133.9" x2="425.2" style="fill: none; stroke: #1d1d1b; stroke-miterlimit: 10;"/>
    <line y1="708.7" x2="538.6" y2="708.7" style="fill: none; stroke: #1d1d1b; stroke-miterlimit: 10;"/>
    <line y1="850.4" x2="538.6" y2="850.4" style="fill: none; stroke: #1d1d1b; stroke-miterlimit: 10;"/>
    <line y1="992.1" x2="538.6" y2="992.1" style="fill: none; stroke: #1d1d1b; stroke-miterlimit: 10;"/>
    <line y1="737" x2="538.6" y2="737" style="fill: none; stroke: #1d1d1b; stroke-miterlimit: 10; stroke-width: .4px;"/>
    <line y1="765.4" x2="538.6" y2="765.4" style="fill: none; stroke: #1d1d1b; stroke-miterlimit: 10; stroke-width: .4px;"/>
    <line y1="793.7" x2="538.6" y2="793.7" style="fill: none; stroke: #1d1d1b; stroke-miterlimit: 10; stroke-width: .4px;"/>
    <line y1="822" x2="538.6" y2="822" style="fill: none; stroke: #1d1d1b; stroke-miterlimit: 10; stroke-width: .4px;"/>
    <line y1="878.7" x2="538.6" y2="878.7" style="fill: none; stroke: #1d1d1b; stroke-miterlimit: 10; stroke-width: .4px;"/>
    <line y1="907.1" x2="538.6" y2="907.1" style="fill: none; stroke: #1d1d1b; stroke-miterlimit: 10; stroke-width: .4px;"/>
    <line y1="935.4" x2="538.6" y2="935.4" style="fill: none; stroke: #1d1d1b; stroke-miterlimit: 10; stroke-width: .4px;"/>
    <line y1="963.8" x2="538.6" y2="963.8" style="fill: none; stroke: #1d1d1b; stroke-miterlimit: 10; stroke-width: .4px;"/>
    <line y1="1020.5" x2="538.6" y2="1020.5" style="fill: none; stroke: #1d1d1b; stroke-miterlimit: 10; stroke-width: .4px;"/>
    <line y1="1048.8" x2="538.6" y2="1048.8" style="fill: none; stroke: #1d1d1b; stroke-miterlimit: 10; stroke-width: .4px;"/>
    <line y1="1077.2" x2="538.6" y2="1077.2" style="fill: none; stroke: #1d1d1b; stroke-miterlimit: 10; stroke-width: .4px;"/>
    <line y1="1105.5" x2="538.6" y2="1105.5" style="fill: none; stroke: #1d1d1b; stroke-miterlimit: 10; stroke-width: .4px;"/>
  </g>
  <g id="f" data-name="10mm Linien">
    <line x1="28.3" y1="1133.9" x2="28.3" style="fill: none; stroke: #1d1d1b; stroke-miterlimit: 10; stroke-width: .4px;"/>
    <line x1="56.7" y1="1133.9" x2="56.7" style="fill: none; stroke: #1d1d1b; stroke-miterlimit: 10; stroke-width: .4px;"/>
    <line x1="85" y1="1133.9" x2="85" style="fill: none; stroke: #1d1d1b; stroke-miterlimit: 10; stroke-width: .4px;"/>
    <line x1="113.4" y1="1133.9" x2="113.4" style="fill: none; stroke: #1d1d1b; stroke-miterlimit: 10; stroke-width: .4px;"/>
    <line x1="170.1" y1="1133.9" x2="170.1" style="fill: none; stroke: #1d1d1b; stroke-miterlimit: 10; stroke-width: .4px;"/>
    <line x1="198.4" y1="1133.9" x2="198.4" style="fill: none; stroke: #1d1d1b; stroke-miterlimit: 10; stroke-width: .4px;"/>
    <line x1="226.8" y1="1133.9" x2="226.8" style="fill: none; stroke: #1d1d1b; stroke-miterlimit: 10; stroke-width: .4px;"/>
    <line x1="255.1" y1="1133.9" x2="255.1" style="fill: none; stroke: #1d1d1b; stroke-miterlimit: 10; stroke-width: .4px;"/>
    <line x1="311.8" y1="1133.9" x2="311.8" style="fill: none; stroke: #1d1d1b; stroke-miterlimit: 10; stroke-width: .4px;"/>
    <line x1="340.2" y1="1133.9" x2="340.2" style="fill: none; stroke: #1d1d1b; stroke-miterlimit: 10; stroke-width: .4px;"/>
    <line x1="368.5" y1="1133.9" x2="368.5" style="fill: none; stroke: #1d1d1b; stroke-miterlimit: 10; stroke-width: .4px;"/>
    <line x1="396.9" y1="1133.9" x2="396.9" style="fill: none; stroke: #1d1d1b; stroke-miterlimit: 10; stroke-width: .4px;"/>
    <line x1="453.5" y1="1133.9" x2="453.5" style="fill: none; stroke: #1d1d1b; stroke-miterlimit: 10; stroke-width: .4px;"/>
    <line x1="481.9" y1="1133.9" x2="481.9" style="fill: none; stroke: #1d1d1b; stroke-miterlimit: 10; stroke-width: .4px;"/>
    <line x1="510.2" y1="1133.9" x2="510.2" style="fill: none; stroke: #1d1d1b; stroke-miterlimit: 10; stroke-width: .4px;"/>
    <line y1="28.3" x2="538.6" y2="28.3" style="fill: none; stroke: #1d1d1b; stroke-miterlimit: 10; stroke-width: .4px;"/>
    <line y1="56.7" x2="538.6" y2="56.7" style="fill: none; stroke: #1d1d1b; stroke-miterlimit: 10; stroke-width: .4px;"/>
    <line y1="85" x2="538.6" y2="85" style="fill: none; stroke: #1d1d1b; stroke-miterlimit: 10; stroke-width: .4px;"/>
    <line y1="113.4" x2="538.6" y2="113.4" style="fill: none; stroke: #1d1d1b; stroke-miterlimit: 10; stroke-width: .4px;"/>
    <line y1="170.1" x2="538.6" y2="170.1" style="fill: none; stroke: #1d1d1b; stroke-miterlimit: 10; stroke-width: .4px;"/>
    <line y1="198.4" x2="538.6" y2="198.4" style="fill: none; stroke: #1d1d1b; stroke-miterlimit: 10; stroke-width: .4px;"/>
    <line y1="226.8" x2="538.6" y2="226.8" style="fill: none; stroke: #1d1d1b; stroke-miterlimit: 10; stroke-width: .4px;"/>
    <line y1="255.1" x2="538.6" y2="255.1" style="fill: none; stroke: #1d1d1b; stroke-miterlimit: 10; stroke-width: .4px;"/>
    <line y1="311.8" x2="538.6" y2="311.8" style="fill: none; stroke: #1d1d1b; stroke-miterlimit: 10; stroke-width: .4px;"/>
    <line y1="340.2" x2="538.6" y2="340.2" style="fill: none; stroke: #1d1d1b; stroke-miterlimit: 10; stroke-width: .4px;"/>
    <line y1="368.5" x2="538.6" y2="368.5" style="fill: none; stroke: #1d1d1b; stroke-miterlimit: 10; stroke-width: .4px;"/>
    <line y1="396.9" x2="538.6" y2="396.9" style="fill: none; stroke: #1d1d1b; stroke-miterlimit: 10; stroke-width: .4px;"/>
    <line y1="453.5" x2="538.6" y2="453.5" style="fill: none; stroke: #1d1d1b; stroke-miterlimit: 10; stroke-width: .4px;"/>
    <line y1="481.9" x2="538.6" y2="481.9" style="fill: none; stroke: #1d1d1b; stroke-miterlimit: 10; stroke-width: .4px;"/>
    <line y1="510.2" x2="538.6" y2="510.2" style="fill: none; stroke: #1d1d1b; stroke-miterlimit: 10; stroke-width: .4px;"/>
    <line y1="538.6" x2="538.6" y2="538.6" style="fill: none; stroke: #1d1d1b; stroke-miterlimit: 10; stroke-width: .4px;"/>
    <line y1="595.3" x2="538.6" y2="595.3" style="fill: none; stroke: #1d1d1b; stroke-miterlimit: 10; stroke-width: .4px;"/>
    <line y1="623.6" x2="538.6" y2="623.6" style="fill: none; stroke: #1d1d1b; stroke-miterlimit: 10; stroke-width: .4px;"/>
    <line y1="652" x2="538.6" y2="652" style="fill: none; stroke: #1d1d1b; stroke-miterlimit: 10; stroke-width: .4px;"/>
    <line y1="680.3" x2="538.6" y2="680.3" style="fill: none; stroke: #1d1d1b; stroke-miterlimit: 10; stroke-width: .4px;"/>
  </g>
  <g id="g" data-name="Logo">
    <g style="opacity: .6;">
      <path d="M366,1063.5h-12.8v42.4c0,0,12.7,0,12.7,0,12.8,0,19-8.9,19-21.2,0-12.4-6.1-21.2-18.9-21.2Z" style="fill: none; stroke-width: 0px;"/>
      <path d="M366,1050.9s-124.4-.3-124.5-.3h3.3c11.7,0,19.7,5,22.7,12.7,0,0,0,.2,0,.3h52.6c1.9,1.4,3.1,3.6,3.1,6.4,0,5.7-4.8,8.6-10.7,8.6h-7.1v11.6h7.1c6.5,0,11.9,3.1,11.9,8.9s-4.8,8.8-10.7,8.8-10.3-2.4-13.8-6.5l-7,8.5c4.6,6.2,12.1,9.8,21.2,9.8s22.4-6.4,22.4-19.7-4-12.7-10.4-15.5c5.7-3,9.1-8.2,9.1-15.3s-.3-3.8-.7-5.5h6.2v54.6c0,0,25,0,25,0,19,0,31.6-13.1,31.6-33.4.1-20.6-12.4-34-31.4-34.1ZM365.7,1106h-12.8v-42.4h12.9c12.8,0,19,8.8,19,21.2s-6.3,21.2-19.1,21.2Z" style="fill: #037678; stroke-width: 0px;"/>
      <path d="M248.8,1091.4c12.7-1.2,20.3-8.7,20.3-19.6s-.5-5.8-1.4-8.2c0,0,0-.2,0-.3-3-7.7-11-12.7-22.7-12.7h-69.4c-20.1.2-34.3,16.3-34.3,36.1s14.3,33,34.6,33,22-4,27.8-12.6l-10.7-7.8c-4,5.8-9.9,9-17.2,9-11.6,0-21.5-8.2-21.6-21.5,0-12.7,9-23.5,21.3-23.5,0,0,0,0,0,0h0l69.1.2c7,0,10.9,2.8,10.9,8.4s-3.8,8.3-11,8.2h-27.8c0,0,0,38.1,0,38.1h13.3v-26.6h4l19.3,26.6h16l-20.4-26.7Z" style="fill: #fff; stroke: #1e1e1c; stroke-miterlimit: 10;"/>
    </g>
  </g>
</svg>