<?xml version="1.0" encoding="UTF-8"?>
<svg xmlns="http://www.w3.org/2000/svg" width="600mm" height="500mm" viewBox="0 0 1700.8 1417.3">
  <g id="a" data-name="Hintergrund">
    <rect width="1700.8" height="1417.3" style="fill: #c6c6c6; stroke-width: 0px;"/>
  </g>
  <g id="b" data-name="Rahmen">
    <path d="M1698.8,2v1413.3H2V2h1696.8M1700.8,0H0v1417.3h1700.8V0h0Z" style="fill: #1d1d1b; stroke-width: 0px;"/>
  </g>
  <g id="c" data-name="50mm Linien">
    <line y1="141.7" x2="1700.8" y2="141.7" style="fill: none; stroke: #1d1d1b; stroke-miterlimit: 10;"/>
    <line y1="283.5" x2="1700.8" y2="283.5" style="fill: none; stroke: #1d1d1b; stroke-miterlimit: 10;"/>
    <line y1="425.2" x2="1700.8" y2="425.2" style="fill: none; stroke: #1d1d1b; stroke-miterlimit: 10;"/>
    <line y1="566.9" x2="1700.8" y2="566.9" style="fill: none; stroke: #1d1d1b; stroke-miterlimit: 10;"/>
    <line x1="141.7" y1="1417.3" x2="141.7" style="fill: none; stroke: #1d1d1b; stroke-miterlimit: 10;"/>
    <line x1="283.5" y1="1417.3" x2="283.5" style="fill: none; stroke: #1d1d1b; stroke-miterlimit: 10;"/>
    <line x1="425.2" y1="1417.3" x2="425.2" style="fill: none; stroke: #1d1d1b; stroke-miterlimit: 10;"/>
    <line x1="566.9" y1="1417.3" x2="566.9" style="fill: none; stroke: #1d1d1b; stroke-miterlimit: 10;"/>
    <line x1="708.7" y1="1417.3" x2="708.7" style="fill: none; stroke: #1d1d1b; stroke-miterlimit: 10;"/>
    <line x1="850.4" y1="1417.3" x2="850.4" style="fill: none; stroke: #1d1d1b; stroke-miterlimit: 10;"/>
    <line y1="708.7" x2="1700.8" y2="708.7" style="fill: none; stroke: #1d1d1b; stroke-miterlimit: 10;"/>
    <line y1="850.4" x2="1700.8" y2="850.4" style="fill: none; stroke: #1d1d1b; stroke-miterlimit: 10;"/>
    <line y1="1133.9" x2="1700.8" y2="1133.9" style="fill: none; stroke: #1d1d1b; stroke-miterlimit: 10;"/>
    <line y1="992.1" x2="1700.8" y2="992.1" style="fill: none; stroke: #1d1d1b; stroke-miterlimit: 10;"/>
    <line y1="1275.6" x2="1700.8" y2="1275.6" style="fill: none; stroke: #1d1d1b; stroke-miterlimit: 10;"/>
    <line x1="850.4" y1="1417.3" x2="850.4" style="fill: none; stroke: #1d1d1b; stroke-miterlimit: 10;"/>
    <line x1="992.1" y1="1417.3" x2="992.1" style="fill: none; stroke: #1d1d1b; stroke-miterlimit: 10;"/>
    <line x1="1133.9" y1="1417.3" x2="1133.9" style="fill: none; stroke: #1d1d1b; stroke-miterlimit: 10;"/>
    <line x1="1275.6" y1="1417.3" x2="1275.6" style="fill: none; stroke: #1d1d1b; stroke-miterlimit: 10;"/>
    <line x1="1417.3" y1="1417.3" x2="1417.3" style="fill: none; stroke: #1d1d1b; stroke-miterlimit: 10;"/>
    <line x1="1559.1" y1="1417.3" x2="1559.1" style="fill: none; stroke: #1d1d1b; stroke-miterlimit: 10;"/>
    <line y1="737" x2="1700.8" y2="737" style="fill: none; stroke: #1d1d1b; stroke-miterlimit: 10; stroke-width: .4px;"/>
    <line y1="765.4" x2="1700.8" y2="765.4" style="fill: none; stroke: #1d1d1b; stroke-miterlimit: 10; stroke-width: .4px;"/>
    <line y1="793.7" x2="1700.8" y2="793.7" style="fill: none; stroke: #1d1d1b; stroke-miterlimit: 10; stroke-width: .4px;"/>
    <line y1="822" x2="1700.8" y2="822" style="fill: none; stroke: #1d1d1b; stroke-miterlimit: 10; stroke-width: .4px;"/>
    <line y1="878.7" x2="1700.8" y2="878.7" style="fill: none; stroke: #1d1d1b; stroke-miterlimit: 10; stroke-width: .4px;"/>
    <line y1="907.1" x2="1700.8" y2="907.1" style="fill: none; stroke: #1d1d1b; stroke-miterlimit: 10; stroke-width: .4px;"/>
    <line y1="935.4" x2="1700.8" y2="935.4" style="fill: none; stroke: #1d1d1b; stroke-miterlimit: 10; stroke-width: .4px;"/>
    <line y1="963.8" x2="1700.8" y2="963.8" style="fill: none; stroke: #1d1d1b; stroke-miterlimit: 10; stroke-width: .4px;"/>
    <line y1="1020.5" x2="1700.8" y2="1020.5" style="fill: none; stroke: #1d1d1b; stroke-miterlimit: 10; stroke-width: .4px;"/>
    <line y1="1048.8" x2="1700.8" y2="1048.8" style="fill: none; stroke: #1d1d1b; stroke-miterlimit: 10; stroke-width: .4px;"/>
    <line y1="1077.2" x2="1700.8" y2="1077.2" style="fill: none; stroke: #1d1d1b; stroke-miterlimit: 10; stroke-width: .4px;"/>
    <line y1="1105.5" x2="1700.8" y2="1105.5" style="fill: none; stroke: #1d1d1b; stroke-miterlimit: 10; stroke-width: .4px;"/>
    <line y1="1162.2" x2="1700.8" y2="1162.2" style="fill: none; stroke: #1d1d1b; stroke-miterlimit: 10; stroke-width: .4px;"/>
    <line y1="1190.6" x2="1700.8" y2="1190.6" style="fill: none; stroke: #1d1d1b; stroke-miterlimit: 10; stroke-width: .4px;"/>
    <line y1="1218.9" x2="1700.8" y2="1218.9" style="fill: none; stroke: #1d1d1b; stroke-miterlimit: 10; stroke-width: .4px;"/>
    <line y1="1247.2" x2="1700.8" y2="1247.2" style="fill: none; stroke: #1d1d1b; stroke-miterlimit: 10; stroke-width: .4px;"/>
    <line y1="1303.9" x2="1700.8" y2="1303.9" style="fill: none; stroke: #1d1d1b; stroke-miterlimit: 10; stroke-width: .4px;"/>
    <line y1="1332.3" x2="1700.8" y2="1332.3" style="fill: none; stroke: #1d1d1b; stroke-miterlimit: 10; stroke-width: .4px;"/>
    <line y1="1360.6" x2="1700.8" y2="1360.6" style="fill: none; stroke: #1d1d1b; stroke-miterlimit: 10; stroke-width: .4px;"/>
    <line y1="1389" x2="1700.8" y2="1389" style="fill: none; stroke: #1d1d1b; stroke-miterlimit: 10; stroke-width: .4px;"/>
    <line x1="878.7" y1="1417.3" x2="878.7" style="fill: none; stroke: #1d1d1b; stroke-miterlimit: 10; stroke-width: .4px;"/>
    <line x1="907.1" y1="1417.3" x2="907.1" style="fill: none; stroke: #1d1d1b; stroke-miterlimit: 10; stroke-width: .4px;"/>
    <line x1="935.4" y1="1417.3" x2="935.4" style="fill: none; stroke: #1d1d1b; stroke-miterlimit: 10; stroke-width: .4px;"/>
    <line x1="963.8" y1="1417.3" x2="963.8" style="fill: none; stroke: #1d1d1b; stroke-miterlimit: 10; stroke-width: .4px;"/>
    <line x1="1020.5" y1="1417.3" x2="1020.5" style="fill: none; stroke: #1d1d1b; stroke-miterlimit: 10; stroke-width: .4px;"/>
    <line x1="1048.8" y1="1417.3" x2="1048.8" style="fill: none; stroke: #1d1d1b; stroke-miterlimit: 10; stroke-width: .4px;"/>
    <line x1="1077.2" y1="1417.3" x2="1077.2" style="fill: none; stroke: #1d1d1b; stroke-miterlimit: 10; stroke-width: .4px;"/>
    <line x1="1105.5" y1="1417.3" x2="1105.5" style="fill: none; stroke: #1d1d1b; stroke-miterlimit: 10; stroke-width: .4px;"/>
    <line x1="1162.2" y1="1417.3" x2="1162.2" style="fill: none; stroke: #1d1d1b; stroke-miterlimit: 10; stroke-width: .4px;"/>
    <line x1="1190.6" y1="1417.3" x2="1190.6" style="fill: none; stroke: #1d1d1b; stroke-miterlimit: 10; stroke-width: .4px;"/>
    <line x1="1218.9" y1="1417.3" x2="1218.9" style="fill: none; stroke: #1d1d1b; stroke-miterlimit: 10; stroke-width: .4px;"/>
    <line x1="1247.2" y1="1417.3" x2="1247.2" style="fill: none; stroke: #1d1d1b; stroke-miterlimit: 10; stroke-width: .4px;"/>
    <line x1="1303.9" y1="1417.3" x2="1303.9" style="fill: none; stroke: #1d1d1b; stroke-miterlimit: 10; stroke-width: .4px;"/>
    <line x1="1332.3" y1="1417.3" x2="1332.3" style="fill: none; stroke: #1d1d1b; stroke-miterlimit: 10; stroke-width: .4px;"/>
    <line x1="1360.6" y1="1417.3" x2="1360.6" style="fill: none; stroke: #1d1d1b; stroke-miterlimit: 10; stroke-width: .4px;"/>
    <line x1="1389" y1="1417.3" x2="1389" style="fill: none; stroke: #1d1d1b; stroke-miterlimit: 10; stroke-width: .4px;"/>
    <line x1="1445.7" y1="1417.3" x2="1445.7" style="fill: none; stroke: #1d1d1b; stroke-miterlimit: 10; stroke-width: .4px;"/>
    <line x1="1474" y1="1417.3" x2="1474" style="fill: none; stroke: #1d1d1b; stroke-miterlimit: 10; stroke-width: .4px;"/>
    <line x1="1502.4" y1="1417.3" x2="1502.4" style="fill: none; stroke: #1d1d1b; stroke-miterlimit: 10; stroke-width: .4px;"/>
    <line x1="1530.7" y1="1417.3" x2="1530.7" style="fill: none; stroke: #1d1d1b; stroke-miterlimit: 10; stroke-width: .4px;"/>
    <line x1="1587.4" y1="1417.3" x2="1587.4" style="fill: none; stroke: #1d1d1b; stroke-miterlimit: 10; stroke-width: .4px;"/>
    <line x1="1615.7" y1="1417.3" x2="1615.7" style="fill: none; stroke: #1d1d1b; stroke-miterlimit: 10; stroke-width: .4px;"/>
    <line x1="1644.1" y1="1417.3" x2="1644.1" style="fill: none; stroke: #1d1d1b; stroke-miterlimit: 10; stroke-width: .4px;"/>
    <line x1="1672.4" y1="1417.3" x2="1672.4" style="fill: none; stroke: #1d1d1b; stroke-miterlimit: 10; stroke-width: .4px;"/>
  </g>
  <g id="d" data-name="10mm Linien">
    <line x1="28.3" y1="1417.3" x2="28.3" style="fill: none; stroke: #1d1d1b; stroke-miterlimit: 10; stroke-width: .4px;"/>
    <line x1="56.7" y1="1417.3" x2="56.7" style="fill: none; stroke: #1d1d1b; stroke-miterlimit: 10; stroke-width: .4px;"/>
    <line x1="85" y1="1417.3" x2="85" style="fill: none; stroke: #1d1d1b; stroke-miterlimit: 10; stroke-width: .4px;"/>
    <line x1="113.4" y1="1417.3" x2="113.4" style="fill: none; stroke: #1d1d1b; stroke-miterlimit: 10; stroke-width: .4px;"/>
    <line x1="170.1" y1="1417.3" x2="170.1" style="fill: none; stroke: #1d1d1b; stroke-miterlimit: 10; stroke-width: .4px;"/>
    <line x1="198.4" y1="1417.3" x2="198.4" style="fill: none; stroke: #1d1d1b; stroke-miterlimit: 10; stroke-width: .4px;"/>
    <line x1="226.8" y1="1417.3" x2="226.8" style="fill: none; stroke: #1d1d1b; stroke-miterlimit: 10; stroke-width: .4px;"/>
    <line x1="255.1" y1="1417.3" x2="255.1" style="fill: none; stroke: #1d1d1b; stroke-miterlimit: 10; stroke-width: .4px;"/>
    <line x1="311.8" y1="1417.3" x2="311.8" style="fill: none; stroke: #1d1d1b; stroke-miterlimit: 10; stroke-width: .4px;"/>
    <line x1="340.2" y1="1417.3" x2="340.2" style="fill: none; stroke: #1d1d1b; stroke-miterlimit: 10; stroke-width: .4px;"/>
    <line x1="368.5" y1="1417.3" x2="368.5" style="fill: none; stroke: #1d1d1b; stroke-miterlimit: 10; stroke-width: .4px;"/>
    <line x1="396.9" y1="1417.3" x2="396.9" style="fill: none; stroke: #1d1d1b; stroke-miterlimit: 10; stroke-width: .4px;"/>
    <line x1="453.5" y1="1417.3" x2="453.5" style="fill: none; stroke: #1d1d1b; stroke-miterlimit: 10; stroke-width: .4px;"/>
    <line x1="481.9" y1="1417.3" x2="481.9" style="fill: none; stroke: #1d1d1b; stroke-miterlimit: 10; stroke-width: .4px;"/>
    <line x1="510.2" y1="1417.3" x2="510.2" style="fill: none; stroke: #1d1d1b; stroke-miterlimit: 10; stroke-width: .4px;"/>
    <line x1="538.6" y1="1417.3" x2="538.6" style="fill: none; stroke: #1d1d1b; stroke-miterlimit: 10; stroke-width: .4px;"/>
    <line x1="595.3" y1="1417.3" x2="595.3" style="fill: none; stroke: #1d1d1b; stroke-miterlimit: 10; stroke-width: .4px;"/>
    <line x1="623.6" y1="1417.3" x2="623.6" style="fill: none; stroke: #1d1d1b; stroke-miterlimit: 10; stroke-width: .4px;"/>
    <line x1="652" y1="1417.3" x2="652" style="fill: none; stroke: #1d1d1b; stroke-miterlimit: 10; stroke-width: .4px;"/>
    <line x1="680.3" y1="1417.3" x2="680.3" style="fill: none; stroke: #1d1d1b; stroke-miterlimit: 10; stroke-width: .4px;"/>
    <line x1="737" y1="1417.3" x2="737" style="fill: none; stroke: #1d1d1b; stroke-miterlimit: 10; stroke-width: .4px;"/>
    <line x1="765.4" y1="1417.3" x2="765.4" style="fill: none; stroke: #1d1d1b; stroke-miterlimit: 10; stroke-width: .4px;"/>
    <line x1="793.7" y1="1417.3" x2="793.7" style="fill: none; stroke: #1d1d1b; stroke-miterlimit: 10; stroke-width: .4px;"/>
    <line x1="822" y1="1417.3" x2="822" style="fill: none; stroke: #1d1d1b; stroke-miterlimit: 10; stroke-width: .4px;"/>
    <line y1="28.3" x2="1700.8" y2="28.3" style="fill: none; stroke: #1d1d1b; stroke-miterlimit: 10; stroke-width: .4px;"/>
    <line y1="56.7" x2="1700.8" y2="56.7" style="fill: none; stroke: #1d1d1b; stroke-miterlimit: 10; stroke-width: .4px;"/>
    <line y1="85" x2="1700.8" y2="85" style="fill: none; stroke: #1d1d1b; stroke-miterlimit: 10; stroke-width: .4px;"/>
    <line y1="113.4" x2="1700.8" y2="113.4" style="fill: none; stroke: #1d1d1b; stroke-miterlimit: 10; stroke-width: .4px;"/>
    <line y1="170.1" x2="1700.8" y2="170.1" style="fill: none; stroke: #1d1d1b; stroke-miterlimit: 10; stroke-width: .4px;"/>
    <line y1="198.4" x2="1700.8" y2="198.4" style="fill: none; stroke: #1d1d1b; stroke-miterlimit: 10; stroke-width: .4px;"/>
    <line y1="226.8" x2="1700.8" y2="226.8" style="fill: none; stroke: #1d1d1b; stroke-miterlimit: 10; stroke-width: .4px;"/>
    <line y1="255.1" x2="1700.8" y2="255.1" style="fill: none; stroke: #1d1d1b; stroke-miterlimit: 10; stroke-width: .4px;"/>
    <line y1="311.8" x2="1700.8" y2="311.8" style="fill: none; stroke: #1d1d1b; stroke-miterlimit: 10; stroke-width: .4px;"/>
    <line y1="340.2" x2="1700.8" y2="340.2" style="fill: none; stroke: #1d1d1b; stroke-miterlimit: 10; stroke-width: .4px;"/>
    <line y1="368.5" x2="1700.8" y2="368.5" style="fill: none; stroke: #1d1d1b; stroke-miterlimit: 10; stroke-width: .4px;"/>
    <line y1="396.9" x2="1700.8" y2="396.9" style="fill: none; stroke: #1d1d1b; stroke-miterlimit: 10; stroke-width: .4px;"/>
    <line y1="453.5" x2="1700.8" y2="453.5" style="fill: none; stroke: #1d1d1b; stroke-miterlimit: 10; stroke-width: .4px;"/>
    <line y1="481.9" x2="1700.8" y2="481.9" style="fill: none; stroke: #1d1d1b; stroke-miterlimit: 10; stroke-width: .4px;"/>
    <line y1="510.2" x2="1700.8" y2="510.2" style="fill: none; stroke: #1d1d1b; stroke-miterlimit: 10; stroke-width: .4px;"/>
    <line y1="538.6" x2="1700.8" y2="538.6" style="fill: none; stroke: #1d1d1b; stroke-miterlimit: 10; stroke-width: .4px;"/>
    <line y1="595.3" x2="1700.8" y2="595.3" style="fill: none; stroke: #1d1d1b; stroke-miterlimit: 10; stroke-width: .4px;"/>
    <line y1="623.6" x2="1700.8" y2="623.6" style="fill: none; stroke: #1d1d1b; stroke-miterlimit: 10; stroke-width: .4px;"/>
    <line y1="652" x2="1700.8" y2="652" style="fill: none; stroke: #1d1d1b; stroke-miterlimit: 10; stroke-width: .4px;"/>
    <line y1="680.3" x2="1700.8" y2="680.3" style="fill: none; stroke: #1d1d1b; stroke-miterlimit: 10; stroke-width: .4px;"/>
  </g>
  <g id="e" data-name="Logo">
    <g style="opacity: .6;">
      <path d="M1655.2,1346.9h-12.8v42.4c0,0,12.7,0,12.7,0,12.8,0,19-8.9,19-21.2,0-12.4-6.1-21.2-18.9-21.2Z" style="fill: none; stroke-width: 0px;"/>
      <path d="M1655.2,1334.3s-124.4-.3-124.5-.3h3.3c11.7,0,19.7,5,22.7,12.7,0,0,0,.2,0,.3h52.6c1.9,1.4,3.1,3.6,3.1,6.4,0,5.7-4.8,8.6-10.7,8.6h-7.1v11.6h7.1c6.5,0,11.9,3.1,11.9,8.9s-4.8,8.8-10.7,8.8-10.3-2.4-13.8-6.5l-7,8.5c4.6,6.2,12.1,9.8,21.2,9.8s22.4-6.4,22.4-19.7-4-12.7-10.4-15.5c5.7-3,9.1-8.2,9.1-15.3s-.3-3.8-.7-5.5h6.2v54.6c0,0,25,0,25,0,19,0,31.6-13.1,31.6-33.4.1-20.6-12.4-34-31.4-34.1ZM1654.9,1389.4h-12.8v-42.4h12.9c12.8,0,19,8.8,19,21.2s-6.3,21.2-19.1,21.2Z" style="fill: #037678; stroke-width: 0px;"/>
      <path d="M1538,1374.8c12.7-1.2,20.3-8.7,20.3-19.6s-.5-5.8-1.4-8.2c0,0,0-.2,0-.3-3-7.7-11-12.7-22.7-12.7h-69.4c-20.1.2-34.3,16.3-34.3,36.1s14.3,33,34.6,33,22-4,27.8-12.6l-10.7-7.8c-4,5.8-9.9,9-17.2,9-11.6,0-21.5-8.2-21.6-21.5,0-12.7,9-23.5,21.3-23.5,0,0,0,0,0,0h0l69.1.2c7,0,10.9,2.8,10.9,8.4s-3.8,8.3-11,8.2h-27.8c0,0,0,38.1,0,38.1h13.3v-26.6h4l19.3,26.6h16l-20.4-26.7Z" style="fill: #fff; stroke: #1e1e1c; stroke-miterlimit: 10;"/>
    </g>
  </g>
</svg>